# xmcd
#
# Track frame offsets: 
#        150
#        10190
#        21646
#        30077
#        37701
#        48027
#        60153
#        69778
#        80554
#        88690
#        99000
#        106715
#        116809
#        126770
#        137592
#        149341
#        158421
#        168780
#        177383
#        190320
#
# Disc length: 2719 seconds
#
# Revision: 0
# Processed by: cddbd v1.5.2PL0 Copyright (c) Steve Scherf et al.
# Submitted via: ExactAudioCopy v0.99pb4
#
DISCID=e60a9d14
DTITLE=johnny cash - emotions2
DYEAR=2010
DGENRE=Country
TTITLE0=ballad of the teenage queen
TTITLE1=big river
TTITLE2=guess things happen that way
TTITLE3=come in stranger
TTITLE4=the ways of a woman in love
TTITLE5=you're the nearest thing to heaven
TTITLE6=it's just about time
TTITLE7=i just thought you'd let me know
TTITLE8=i can't help it if i'm still in love with you
TTITLE9=you win again
TTITLE10=hey good lookin'
TTITLE11=i could never be ashamed of you
TTITLE12=shepherd of my heart
TTITLE13=run softly blue river
TTITLE14=i still miss someone
TTITLE15=one more ride
TTITLE16=frankie's man johnny
TTITLE17=that's all over
TTITLE18=supper-time
TTITLE19=don't take the guns to town
EXTD=
EXTT0=
EXTT1=
EXTT2=
EXTT3=
EXTT4=
EXTT5=
EXTT6=
EXTT7=
EXTT8=
EXTT9=
EXTT10=
EXTT11=
EXTT12=
EXTT13=
EXTT14=
EXTT15=
EXTT16=
EXTT17=
EXTT18=
EXTT19=
PLAYORDER=
